<svg width="100" height="40" viewBox="-30 -10 400 160" xmlns="http://www.w3.org/2000/svg" preserveAspectRatio="slice">
  <defs>
    <clipPath clipPathUnits="userSpaceOnUse" id="a">
      <path d="M0 612.288h858.898V0H0Z"/>
    </clipPath>
  </defs>
  <g clip-path="url(#a)" transform="matrix(1.33333 0 0 -1.33333 -393.96 482.368)">
    <path d="M0 0c-12.16 0-23.593 3.942-33.062 11.4a5 5 0 0 0 6.188 7.856C-19.187 13.2-9.894 10 0 10c24.059 0 43.632 19.573 43.632 43.632C43.632 77.69 24.059 97.264 0 97.264c-9.797 0-19.051-3.17-26.763-9.168a4.997 4.997 0 0 0-7.015.877 4.997 4.997 0 0 0 .877 7.015c9.482 7.377 20.86 11.276 32.901 11.276 29.572 0 53.632-24.06 53.632-53.632S29.572 0 0 0" style="fill:#1ca3de;fill-opacity:1;fill-rule:nonzero;stroke:none" transform="translate(504.443 254.512)"/>
    <path d="M0 0c0 2.818 2.155 5.057 4.975 5.057A5.024 5.024 0 0 0 10.031 0v-38.301c0-2.819-2.238-4.975-5.056-4.975C2.238-43.276 0-41.12 0-38.301z" style="fill:#1ca3de;fill-opacity:1;fill-rule:nonzero;stroke:none" transform="translate(423.195 327.002)"/>
    <path d="M0 0c0 2.818 2.155 5.057 4.975 5.057A5.024 5.024 0 0 0 10.031 0v-38.301c0-2.819-2.238-4.975-5.056-4.975C2.238-43.276 0-41.12 0-38.301z" style="fill:#1ca3de;fill-opacity:1;fill-rule:nonzero;stroke:none" transform="translate(295.47 326.943)"/>
    <path d="M0 0c-6.64 0-12.48-2.07-16.76-5.91-4.62-4.13-7.42-10.31-7.44-18.19v-.001c0-7.423-6.37-14.301-14.2-14.301-3 0-5.78.93-8.08 2.53-3.7 2.56-6.12 6.84-6.12 11.67 0 7.83 6.37 14.2 14.2 14.2 2.33 0 4.54-.54 6.58-1.61a4.985 4.985 0 0 1 6.75 2.1c.74 1.4.74 2.99.16 4.33h-.01c-.43 1-1.21 1.87-2.25 2.42A24.19 24.19 0 0 1-38.4-.002c-13.34 0-24.2-10.86-24.2-24.2 0-7.72 3.64-14.62 9.3-19.05a24.02 24.02 0 0 1 14.9-5.15c7.82 0 14.768 3.739 19.2 9.5 3.12 4.057 4.975 8.765 4.996 14.702h.004v.1c.02 2.93 1.03 5.91 2.84 8.37C-8.91-12.39-4.96-10 0-10c7.83 0 14.2-6.37 14.2-14.2 0-7.83-6.37-14.2-14.2-14.2-4.64 0-8.78 2.24-11.37 5.7a28.42 28.42 0 0 0-4.99-9.3A24 24 0 0 1 0-48.4c13.34 0 24.2 10.86 24.2 24.2S13.34 0 0 0" style="fill:#105373;fill-opacity:1;fill-rule:nonzero;stroke:none" transform="translate(504.364 332.059)"/>
    <path d="M0 0c-7.83 0-14.2 6.37-14.2 14.2 0 7.83 6.37 14.2 14.2 14.2 7.621 0 13.842-6.039 14.169-13.582v-.198c0-.071.018-.136.02-.206.001-.072.011-.142.011-.214C14.2 6.37 7.83 0 0 0m24.2 48.488a5.024 5.024 0 0 1-5.056 5.057c-2.82 0-4.975-2.239-4.975-5.057V33.801A24.065 24.065 0 0 1 0 38.4c-13.344 0-24.2-10.856-24.2-24.2S-13.344-10 0-10 24.2.856 24.2 14.2c0 .113-.007.223-.008.335 0 .029.008.056.008.085z" style="fill:#1ca3de;fill-opacity:1;fill-rule:nonzero;stroke:none" transform="translate(389.458 293.634)"/>
    <path d="M0 0c-.76 10.58-9.42 18.96-20.11 19.3-.01.01-.03.01-.05 0-.2.02-.41.02-.63.02-.2 0-.4 0-.59-.02-10.74-.29-19.46-8.71-20.19-19.35-.03-.23-.06-.486-.05-.726V-24.05c0-2.82 2.24-4.97 4.98-4.97 2.82 0 5.05 2.15 5.05 4.97v23.3c0 .04 0 .07-.01.11.45 5.57 5.13 9.96 10.81 9.96 5.71 0 10.41-4.42 10.82-10.03 0-.01.01-.02 0-.04v-23.3c0-2.82 2.23-4.97 4.97-4.97 2.82 0 5.06 2.15 5.06 4.97v23.3C.06-.49.04-.24 0 0" style="fill:#1ca3de;fill-opacity:1;fill-rule:nonzero;stroke:none" transform="translate(356.661 312.742)"/>
  </g>
</svg>
