<?xml version="1.0" encoding="UTF-8"?>
<svg xmlns="http://www.w3.org/2000/svg" viewBox="0 0 500 500">
  <defs>
    <style>
      .white {
        fill: #fff;
      }

      .gray {
        fill: #b3b3b3;
      }

      .line {
        stroke: #fff;
        stroke-width: 7.89px;
      }
    </style>
  </defs>
  <g>
    <rect class="gray" y="0" width="500" height="500" />
    <path class="line" d="m0,499.98L500,.02" />
    <path class="line" d="m0,.02l499.99,499.96" />
    <rect class="gray" x="179.13" y="197.53" width="141.73" height="104.93" />
    <path
        class="white"
        d="m201.25,314.37c-13.1,0-23.75-10.65-23.75-23.75v-81.25c0-13.1,10.65-23.75,23.75-23.75h97.5c13.1,0,23.75,10.65,23.75,23.75v81.25c0,13.1-10.65,23.75-23.75,23.75h-97.5Zm60.94-80c4.22,0,8.25,1.99,10.79,5.31l22.34,28.91v-55.78h-63.62c5.72,3.45,9.56,9.72,9.56,16.88,0,10.86-8.83,19.69-19.69,19.69-7.15,0-13.43-3.83-16.88-9.56v27.5l7.85-10.99c2.5-3.56,6.64-5.71,11.05-5.71s8.51,2.12,11.05,5.68l1.88,2.63,14.9-19.28c2.62-3.36,6.54-5.28,10.76-5.28Zm-57.5-14.82c1.66-2.76,3.98-5.08,6.74-6.74h-6.74v6.74Z"
    />
    <path
        class="gray"
        d="m298.75,193.12c8.96,0,16.25,7.29,16.25,16.25v81.25c0,8.96-7.29,16.25-16.25,16.25h-97.5c-8.96,0-16.25-7.29-16.25-16.25v-81.25c0-8.96,7.29-16.25,16.25-16.25h97.5m-101.56,97.58l1.14-1.57,20.31-28.44c1.14-1.62,2.97-2.56,4.95-2.56s3.81.94,4.95,2.54l7.74,10.84,21.07-27.27c1.17-1.5,2.95-2.36,4.82-2.36s3.68.86,4.82,2.36l34.53,44.69,1.27,1.65v-81.2c0-2.23-1.83-4.06-4.06-4.06h-97.5c-2.23,0-4.06,1.83-4.06,4.06v81.33m24.38-73.2c6.73,0,12.19,5.46,12.19,12.19s-5.46,12.19-12.19,12.19-12.19-5.46-12.19-12.19,5.46-12.19,12.19-12.19m77.19-39.38h-97.5c-17.23,0-31.25,14.02-31.25,31.25v81.25c0,17.23,14.02,31.25,31.25,31.25h97.5c17.23,0,31.25-14.02,31.25-31.25v-81.25c0-17.23-14.02-31.25-31.25-31.25h0Zm-51.67,42.19h40.73v26.31l-8.91-11.54c-3.95-5.14-10.19-8.21-16.71-8.21-5.02,0-9.76,1.74-13.52,4.89.05-.68.08-1.38.08-2.07,0-3.29-.59-6.45-1.67-9.38h0Z"
    />
  </g>
</svg>
