<svg width="400" height="400" xmlns="http://www.w3.org/2000/svg" style="background-color:#f9f9f9;">
    <g clip-path="url(#_clip1)">
        <g transform="matrix(1.07932,0,0,0.63939,27.4701,264.99)">
            <path d="M275.747,141.669C275.747,109.687 260.365,83.721 241.419,83.721L78.282,83.721C59.335,83.721 43.953,109.687 43.953,141.669L43.953,257.567C43.953,289.549 59.335,315.515 78.282,315.515L241.419,315.515C260.365,315.515 275.747,289.549 275.747,257.567L275.747,141.669Z" style="fill:white;fill-opacity:0;stroke:#555555;stroke-width:32.88px;"/>
        </g>
        <g transform="matrix(0.980191,0,0,0.707032,43.3164,90.6471)">
            <path d="M275.747,141.669C275.747,109.687 257.018,83.721 233.948,83.721L85.752,83.721C62.683,83.721 43.953,109.687 43.953,141.669L43.953,257.567C43.953,289.549 62.683,315.515 85.752,315.515L233.948,315.515C257.018,315.515 275.747,289.549 275.747,257.567L275.747,141.669Z" style="fill-opacity:0;stroke:#555555;stroke-width:34.13px;"/>
        </g>
        <g transform="matrix(2.03157,0,0,3.15567,-125.649,-328.372)">
            <ellipse cx="128.334" cy="172.864" rx="7.353" ry="4.585"/>
        </g>
        <g transform="matrix(2.03157,0,0,3.15567,4.20776,-328.372)">
            <ellipse cx="128.334" cy="172.864" rx="7.353" ry="4.585"/>
        </g>
        <g transform="matrix(0.86571,0,0,0.86571,26.8579,36.7015)">
            <path d="M142.255,271.756C142.255,271.756 254.717,271.451 257.172,271.451" style="fill:none;stroke:#555555;stroke-width:28.88px;"/>
        </g>
        <g transform="matrix(0.86571,0,0,0.86571,26.8579,25.0505)">
            <path d="M200,138.182L182.986,28.495" style="fill:none;stroke:#555555;stroke-width:28.88px;"/>
            <g transform="matrix(1.02579,0,0,1,-3.3388,10.9013)">
                <path d="M118.379,92.124L271.341,66.194" style="fill:none;stroke:#555555;stroke-width:28.51px;"/>
            </g>
            <path d="M222.411,42.311L136.052,56.346" style="fill:none;stroke:#555555;stroke-width:28.88px;"/>
        </g>
    </g>
</svg>
