<svg fill="#8c8c8c" xmlns="http://www.w3.org/2000/svg" viewBox="7.39 0.08 20.89 21.37" height="60" width="57"><ellipse style="fill:#8c8c8c;fill-opacity:1;stroke:#8c8c8c;stroke-width:.5;stroke-dasharray:none;stroke-opacity:1" cx="17.838" cy="10.765" rx="10.196" ry="10.433" /><path d="M22.357 13.573c-.659 0-1.252.27-1.677.705l-6.28-3.113a2.3 2.3 0 0 0 0-.732l6.28-3.114a2.34 2.34 0 0 0 1.677.706 2.32 2.32 0 0 0 2.331-2.312 2.32 2.32 0 0 0-2.331-2.311 2.32 2.32 0 0 0-2.303 2.677l-6.281 3.114a2.34 2.34 0 0 0-1.676-.706A2.32 2.32 0 0 0 9.765 10.8a2.32 2.32 0 0 0 2.332 2.311c.658 0 1.252-.27 1.676-.705l6.28 3.113a2.32 2.32 0 0 0 2.303 2.678 2.32 2.32 0 0 0 2.332-2.312 2.32 2.32 0 0 0-2.331-2.311z" style="fill:#fff;fill-opacity:1;stroke-width:.928674" /></svg>
