<svg xmlns="http://www.w3.org/2000/svg" xmlns:xlink="http://www.w3.org/1999/xlink" version="1.1" id="Camada_1" x="0px" y="0px" width="100px" height="100px" viewBox="0 0 100 100" enable-background="new 0 0 100 100" xml:space="preserve">
<path d="M50,0.5L1.527,24.723v50.538L50,99.5l48.473-24.239V24.723L50,0.5z M6.289,27.666L48.621,6.012v42.876L36,55.349V23.306  l-16.75,8.171v32.444L6.289,70.555V27.666z M21.25,62.395V32.727L34,26.507v29.62L21.25,62.395z M50.001,94.176L6.852,72.599  L50,51.023l43.148,21.575L50.001,94.176z M93.71,70.555L51.383,48.891V6.014L93.71,27.666V70.555z"/>
<g>
	<path d="M80.807,48.617l-16.75-8.366V23.939l16.75,8.171V48.617z M66.057,39.015l12.75,6.368V33.36l-12.75-6.22V39.015z"/>
</g>
<g>
	<polygon points="59.733,57.949 49.834,53 39.934,57.949 49.833,62.899  "/>
	<polygon points="49.834,72.799 59.733,67.849 49.834,62.899 39.993,67.819 30.15,62.898 20.25,67.848 30.15,72.797 39.991,67.877     "/>
	<polygon points="49.834,72.799 39.994,77.718 30.15,72.797 20.25,77.746 30.15,82.697 39.99,77.776 49.834,82.699 59.733,77.748     "/>
	<polygon points="49.834,92.598 59.733,87.648 49.834,82.699 39.934,87.648  "/>
	<polygon points="69.634,62.898 59.733,67.848 69.634,72.798 79.533,67.848  "/>
	<polygon points="59.733,77.747 69.634,82.698 79.533,77.747 69.634,72.798  "/>
</g>
<path fill="none" stroke="#000000" stroke-width="2" d="M65.057,33.138"/>
<path fill="none" stroke="#000000" stroke-width="2" d="M79.807,40.333"/>
</svg>