<?xml version="1.0" standalone="no"?>
<!DOCTYPE svg PUBLIC "-//W3C//DTD SVG 1.1//EN" "http://www.w3.org/Graphics/SVG/1.1/DTD/svg11.dtd" >
<svg xmlns="http://www.w3.org/2000/svg">
<metadata>
This is a custom SVG font generated by IcoMoon.
<iconset grid="16"></iconset>
</metadata>
<defs>
<font id="icomoon" horiz-adv-x="512" >
<font-face units-per-em="512" ascent="480" descent="-32" />
<missing-glyph horiz-adv-x="512" />
<glyph class="hidden" unicode="&#xf000;" d="M0,480L 512 -32L0 -32 z" horiz-adv-x="0" />
<glyph unicode="&#x22;" d="M 64,0c0-17.673 14.327-32 32-32l 320,0 c 17.674,0 32,14.327 32,32l0,352 l-384,0 l0-352 zM 320,288l 64,0 l0-256 l-64,0 l0,256 zM 224,288l 64,0 l0-256 l-64,0 l0,256 zM 128,288l 64,0 l0-256 l-64,0 l0,256 zM 448,448l-128,0 l0,32 l-128,0 l0-32 l-128,0 c-35.346,0-64-28.654-64-64l 512,0 c0,35.346-28.653,64-64,64z" />
<glyph unicode="&#x24;" d="M 128,288l 128-128 128,128z" />
<glyph unicode="&#x25;" d="M 371.514,288l-67.647,0 l-47.866-70.516-47.87,70.516l-67.644,0 l 81.081-121.232-91.487-134.768l 131.12,0 l0,45.788 l-30.278,0 l 25.078,37.497 55.698-83.285l 70.221,0 l-91.488,134.768zM 451.716,380.285l-71.432,71.431c-15.556,15.556-46.284,28.284-68.284,28.284l-240,0 c-22,0-40-18-40-40l0-432 c0-22 18-40 40-40l 368,0 c 22,0 40,18 40,40l0,304 c0,22-12.728,52.729-28.284,68.285zM 429.089,357.657c 1.565-1.565 3.125-3.487 4.64-5.657l-81.729,0 l0,81.728 c 2.17-1.515 4.092-3.075 5.657-4.64l 71.432-71.431zM 448,8c0-4.336-3.664-8-8-8l-368,0 c-4.336,0-8,3.664-8,8l0,432 c0,4.336 3.664,8 8,8l 240,0 c 2.416,0 5.127-0.305 8-0.852l0-127.148 l 127.148,0 c 0.547-2.873 0.852-5.583 0.852-8l0-304 z" />
<glyph unicode="&#x26;" d="M 256,416l0,64 l-192,0 l0-64 l-64,0 l0-192 l 64,0 l0-256 l 192,0 l0,256 l 256,0 l0,192 l-256,0 zM 64,256l-32,0 l0,128 l 32,0 l0-128 zM 224,416l-64,0 l0-32 l 64,0 l0-32 l-64,0 l0-32 l 64,0 l0-32 l-64,0 l0-32 l 64,0 l0-32 l-64,0 l0-32 l 64,0 l0-32 l-64,0 l0-32 l 64,0 l0-32 l-64,0 l0-32 l 64,0 l0-64 l-128,0 l0,448 l 128,0 l0-32 zM 480,256l-32,0 l0,64 l-32,0 l0-64 l-32,0 l0,64 l-32,0 l0-64 l-32,0 l0,64 l-32,0 l0-64 l-32,0 l0,128 l 224,0 l0-128 z" />
<glyph unicode="&#x27;" d="M 380.931-32c 56.863,103.016 66.444,260.153-156.931,254.912l0-126.912 l-192,192 192,192l0-124.186 c 267.481,6.971 297.285-236.107 156.931-387.814z" />
<glyph unicode="&#x28;" d="M 224,192l-32,32-96-96 96-96 32,32-64,64zM 288,64l 32-32 96,96-96,96-32-32 64-64zM 451.716,380.285l-71.432,71.431c-15.556,15.556-46.284,28.284-68.284,28.284l-240,0 c-22,0-40-18-40-40l0-432 c0-22 18-40 40-40l 368,0 c 22,0 40,18 40,40l0,304 c0,22-12.728,52.729-28.284,68.285zM 429.089,357.657c 1.565-1.565 3.125-3.487 4.64-5.657l-81.729,0 l0,81.728 c 2.17-1.515 4.092-3.075 5.657-4.64l 71.432-71.431zM 448,8c0-4.336-3.664-8-8-8l-368,0 c-4.336,0-8,3.664-8,8l0,432 c0,4.336 3.664,8 8,8l 240,0 c 2.416,0 5.127-0.305 8-0.852l0-127.148 l 127.148,0 c 0.547-2.873 0.852-5.583 0.852-8l0-304 z" />
<glyph unicode="&#x29;" d="M 224,192l 64,0 l0,128 l 96,0 l-128,128-128-128l 96,0 zM 320,264l0-49.356 l 146.533-54.644-210.533-78.509-210.533,78.509 146.533,54.644l0,49.356 l-192-72l0-128 l 256-96 256,96l0,128 z" />
<glyph unicode="&#x2a;" d="M 32,480l0-160 l 64,96l 128,0 l0-416 l-64,0 l-32-32l 256,0 l-32,32l-64,0 l0,416 l 128,0 l 64-96l0,160 z" />
<glyph unicode="&#x2b;" d="M 131.851,338.143c 2.709-85.392 23.232-156.27 61.189-211.080 17.343-25.043 38.449-46.778 62.96-64.873 24.511,18.095 45.618,39.83 62.959,64.873 37.957,54.811 58.48,125.688 61.189,211.080-40.225,9.645-79.752,25.45-124.149,49.495-44.403-24.049-83.921-39.85-124.148-49.495zM 458.873,406.909c-71.437,4.968-128.954,27.959-202.871,73.091-73.922-45.132-131.439-68.123-202.875-73.091-19.676-311.341 149.769-410.069 202.875-438.909 53.103,28.84 222.548,127.568 202.871,438.909zM 358.422,99.735c-35.469-51.219-77.048-80.031-102.421-95.026-25.374,14.995-66.952,43.807-102.422,95.026-49.507,71.489-72.928,164.977-69.753,278.177 56.394,7.775 107.891,27.271 172.175,64.812 64.281-37.541 115.777-57.037 172.173-64.812 3.176-113.2-20.245-206.687-69.752-278.177z" />
<glyph unicode="&#x2c;" d="M 437.011,405.010c-46.326,46.328-110.318,74.99-181.011,74.99-109.744,0-203.345-69.064-239.749-166.094l 59.938-22.477c 27.302,72.773 97.503,124.571 179.811,124.571 53.020,0 101.010-21.5 135.753-56.247l-71.753-71.753l 192,0 l0,192 l-74.989-74.99zM 256,32c-53.020,0-101.013,21.496-135.756,56.244l 71.756,71.756l-192,0 l0-192 l 74.997,74.997c 46.323-46.331 110.309-74.997 181.003-74.997 109.745,0 203.346,69.064 239.75,166.094l-59.938,22.477c-27.302-72.773-97.503-124.571-179.812-124.571z" />
<glyph unicode="&#x2d;" d="M 512,320l-160,0 l0,160 l-192,0 l0-160 l-160,0 l0-192 l 160,0 l0-160 l 192,0 l0,160 l 160,0 z" />
<glyph unicode="&#x2e;" d="M 228-12l 284,0 l0,8 l-276,0 zM 244,4l 268,0 l0,8 l-260,0 zM 212-28l 300,0 l0,8 l-292,0 zM 292,52l 220,0 l0,8 l-212,0 zM 276,36l 236,0 l0,8 l-228,0 zM 260,20l 252,0 l0,8 l-244,0 zM 469.486,437.486c-25.969,25.97-55.528,42.514-84.413,42.514-19.764,0-39.211-7.745-56.979-25.514l-247.871-246.261-80.223-208.225 32-32 208.223,80.225 246.265,247.87c 43.737,43.738 26.737,97.653-17.002,141.391zM 240.149,93.553l-114.598,114.597 201.804,200.494 113.287-113.288-200.493-201.803z" />
<glyph unicode="&#x2f;" d="M 64,480l0-160 l 64,96l 128,0 l0-416 l-64,0 l0-32 l 192,0 l0,32 l-64,0 l0,416 l 128,0 l 64-96l0,160 zM 128,192l 64,0 l 32-48l0,80 l-224,0 l0-80 l 32,48l 64,0 l0-192 l-32,0 l0-32 l 96,0 l0,32 l-32,0 z" />
<glyph unicode="&#x30;" d="M 448,352l-128,0 l0,64 l-64,64l-256,0 l0-384 l 192,0 l0-128 l 320,0 l0,320 l-64,64zM 32,128l0,320 l 192,0 l 64-64l0-32 l-96,0 l0-224 l-160,0 zM 480,0l-256,0 l0,320 l 192,0 l 64-64l0-256 z" />
<glyph unicode="&#x31;" d="M0,416l0-384 l 512,0 l0,384 l-512,0 zM 480,64l-32,0 l-96,144-64-48-128,160-96-256l-32,0 l0,320 l 448,0 l0-320 zM 352,304c0-26.509 21.491-48 48-48s 48,21.491 48,48c0,26.509-21.491,48-48,48-26.509,0-48-21.491-48-48z" />
<glyph unicode="&#x32;" d="M 288,256l-96,0 l0-160 l-80,0 l 128-128 128,128l-80,0 zM 320,480l-288,0 l0-192 l 16-320 16,320l0,160 l 256,0 l0-96 l 96,0 l0-64 l 16-320 16,320l0,64 z" />
<glyph unicode="&#x33;" d="M 466.895,174.875c-26.863,46.527-10.708,106.152 36.076,133.244l-50.313,87.146c-14.375-8.427-31.088-13.259-48.923-13.259-53.768,0-97.354,43.873-97.354,97.995l-100.629,0 c 0.133-16.705-4.037-33.641-12.979-49.126-26.862-46.528-86.578-62.351-133.431-35.379l-50.312-87.146c 14.485-8.236 27.025-20.294 35.943-35.739 26.819-46.454 10.756-105.96-35.854-133.112l 50.313-87.146c 14.325,8.348 30.958,13.127 48.7,13.127 53.598,0 97.072-43.596 97.35-97.479l 100.627,0 c-0.043,16.537 4.136,33.285 12.983,48.609 26.818,46.453 86.388,62.297 133.207,35.506l 50.313,87.145c-14.39,8.233-26.846,20.249-35.717,35.614zM 256,120.334c-57.254,0-103.668,46.412-103.668,103.667 0,57.254 46.413,103.667 103.668,103.667 57.254,0 103.666-46.413 103.666-103.667-0.001-57.255-46.412-103.667-103.666-103.667z" />
<glyph unicode="&#x34;" d="M 256.001,480l-256.001-256l 160,0 l0-255.999 l 192-0.001l0,256 l 160,0 z" />
<glyph unicode="&#x35;" d="M0,480l0-512 l 512,0 l0,512 l-512,0 zM 480,320l-128,0 l0,128 l 128,0 l0-128 zM 192,160l0,128 l 128,0 l0-128 l-128,0 zM 320,128l0-128 l-128,0 l0,128 l 128,0 zM 160,160l-128,0 l0,128 l 128,0 l0-128 zM 192,320l0,128 l 128,0 l0-128 l-128,0 zM 352,288l 128,0 l0-128 l-128,0 l0,128 zM 160,448l0-128 l-128,0 l0,128 l 128,0 zM 32,128l 128,0 l0-128 l-128,0 l0,128 zM 352,0l0,128 l 128,0 l0-128 l-128,0 z" />
<glyph unicode="&#x37;" d="M 21.277,44.302l 121.276,103.147c 12.537,11.283 25.945,16.463 36.776,15.963-28.628,33.534-45.921,77.039-45.921,124.588 0,106.039 85.961,192 192,192 106.038,0 192-85.961 192-192 0-106.039-85.961-192-192-192-47.549,0-91.054,17.293-124.588,45.922 0.5-10.831-4.68-24.239-15.963-36.776l-103.147-121.276c-17.661-19.623-46.511-21.277-64.11-3.678s-15.946,46.449 3.677,64.11zM 325.408,160c 70.692,0 128,57.308 128,128s-57.308,128-128,128-128-57.308-128-128 57.307-128 128-128z" />
<glyph unicode="&#x38;" d="M 448,480l-384,0 c-35.2,0-64-28.8-64-64l0-384 c0-35.2 28.8-64 64-64l 384,0 c 35.2,0 64,28.8 64,64l0,384 c0,35.2-28.8,64-64,64zM 488,44l-78.014,0 c-0.001,0-0.001-0.001-0.002-0.001 3.811,2.367 7.405,5.049 10.758,8.002l-0.001-0.001l 67.259,0 l0-8 zM 407.529,72.471c-10.621-10.621-24.659-16.471-39.529-16.471l-224,0 c-14.87,0-28.908,5.85-39.529,16.471-10.622,10.621-16.471,24.659-16.471,39.529l0,224 c0,14.87 5.849,28.908 16.471,39.529 10.621,10.622 24.659,16.471 39.529,16.471l 224,0 c 14.87,0 28.908-5.849 39.529-16.471 10.621-10.621 16.471-24.659 16.471-39.529l0-224 c0-14.87-5.85-28.908-16.471-39.529zM 488,60l-59.357,0 c-0.001-0.001-0.001-0.002-0.002-0.002 2.184,2.541 4.216,5.214 6.073,8.015-0.003-0.005-0.005-0.009-0.008-0.013l 53.294,0 l0-8 zM 488,76l-48.637,0 c 1.316,2.592 2.504,5.258 3.537,8l 45.1,0 l0-8 zM 488,92l-42.549,0 c-0.009-0.033-0.021-0.065-0.029-0.1 0.692,2.65 1.252,5.353 1.67,8.1l 40.908,0 l0-8 zM 488,108l-40.102,0 c0-0.003-0.001-0.007-0.001-0.010 0.066,1.329 0.103,2.665 0.103,4.010l0,4 l 40,0 l0-8 zM 488,124l-40,0 l0,8 l 40,0 l0-8 zM 488,140l-40,0 l0,8 l 40,0 l0-8 zM 488,156l-40,0 l0,8 l 40,0 l0-8 zM 488,172l-40,0 l0,8 l 40,0 l0-8 zM 488,188l-40,0 l0,8 l 40,0 l0-8 zM 488,204l-40,0 l0,8 l 40,0 l0-8 zM 488,220l-40,0 l0,8 l 40,0 l0-8 zM 488,236l-40,0 l0,8 l 40,0 l0-8 zM 488,252l-40,0 l0,8 l 40,0 l0-8 zM 488,268l-40,0 l0,8 l 40,0 l0-8 zM 488,284l-40,0 l0,8 l 40,0 l0-8 zM 488,300l-40,0 l0,8 l 40,0 l0-8 zM 488,316l-40,0 l0,8 l 40,0 l0-8 zM 488,332l-40,0 l0,4 c0,1.345-0.036,2.681-0.103,4.010 0-0.003 0.001-0.006 0.001-0.010l 40.102,0 l0-8 zM 488,348l-40.908,0 c-0.418,2.747-0.978,5.449-1.67,8.099 0.009-0.033 0.021-0.066 0.029-0.099l 42.549,0 l0-8 zM 488,364l-45.1,0 c-1.033,2.742-2.221,5.408-3.537,8l 48.637,0 l0-8 zM 488,380l-53.294,0 c 0.003-0.004 0.005-0.008 0.008-0.012-1.856,2.8-3.888,5.472-6.071,8.012l 59.357,0 l0-8 zM 488,412l-44,0 l-8-8l 52,0 l0-8 l-60,0 l-3.5-3.5c-14.5,14.5-34.5,23.5-56.5,23.5l-224,0 c-44,0-80-36-80-80l0-224 c0-22 9-42 23.5-56.5l-3.5-3.5l 7.258,0 c 3.353-2.953 6.947-5.634 10.757-8.001 0,0-0.001,0.001-0.002,0.001l-26.013,0 l-8-8l 51.139,0 c 7.836-2.583 16.189-4 24.861-4l 224,0 c 8.672,0 17.025,1.417 24.861,4l 95.139,0 l0-4 c0-2.032-0.156-4.042-0.457-6.019 0.103,0.669 0.188,1.342 0.256,2.019l-427.799,0 l-8-8l 434.143,0 c-1.38-4.349-3.512-8.441-6.33-12.126 1.013,1.325 1.938,2.702 2.771,4.126l-438.584,0 l-8-8l 440.448,0 c-0.074-0.075-0.144-0.154-0.219-0.229-3.443-3.444-7.393-6.178-11.667-8.146l-417.124,0 c-4.274,1.968-8.223,4.701-11.667,8.146-7.591,7.589-11.771,17.616-11.771,28.229l0,384 c0,10.614 4.18,20.639 11.771,28.229s 17.615,11.771 28.229,11.771l 384,0 c 10.613,0 20.64-4.18 28.229-11.771 0.075-0.075 0.145-0.154 0.219-0.229l-0.448,0 l-8-8l 14.583,0 c-0.833,1.424-1.758,2.801-2.771,4.126 2.818-3.685 4.95-7.778 6.33-12.126l-26.142,0 l-8-8l 35.799,0 c-0.067,0.677-0.153,1.35-0.256,2.020 0.301-1.977 0.457-3.987 0.457-6.020l0-4 zM 486.144,20.002c 0.402,1.27 0.74,2.561 1.015,3.868-0.273-1.308-0.613-2.599-1.015-3.868zM 487.179,23.96c 0.126,0.607 0.234,1.219 0.331,1.833-0.097-0.614-0.206-1.226-0.331-1.833zM 476.449,4.001c 0.565,0.574 1.107,1.164 1.634,1.765-0.526-0.601-1.068-1.191-1.634-1.765zM 478.297,6.014c 0.494,0.573 0.973,1.156 1.431,1.752-0.458-0.596-0.936-1.18-1.431-1.752zM 476.449,443.999c 0.565-0.574 1.108-1.165 1.635-1.765-0.526,0.6-1.069,1.19-1.635,1.765zM 478.297,441.987c 0.494-0.574 0.973-1.158 1.432-1.754-0.458,0.597-0.938,1.181-1.432,1.754zM 486.143,427.999c 0.404-1.272 0.745-2.566 1.018-3.877-0.275,1.31-0.614,2.604-1.018,3.877zM 487.179,424.042c 0.126-0.611 0.235-1.226 0.333-1.844-0.098,0.618-0.207,1.233-0.333,1.844zM 345.137,96l 48.399,0 l-117.536,256.499l-40,0 l-117.536-256.499l 48.399,0 l 29.327,64l 119.62,0 l 29.327-64zM 210.854,192l 45.146,98.523 45.146-98.523l-90.292,0 z" />
<glyph unicode="&#x39;" d="M 160,448l0-36.948 l-83.808-11.778 5.444-38.74-81.636-23.409 105.845-369.125 326.033,93.488 17.87,2.512l 62.252,0 l0,384 l-352,0 zM 125.728,3.87l-89.858,313.371 49.843,14.292 43.922-312.522 95.897,13.478-99.804-28.619zM 154.316,51.765l-45.37,322.828 51.054,7.174l0-317.767 l 81.375,0 l-87.059-12.235zM 480,96l-288,0 l0,320 l 288,0 l0-320 zM 416,224l-64,0 l0-64 l-32,0 l0,64 l-64,0 l0,32 l 64,0 l0,64 l 32,0 l0-64 l 64,0 z" />
<glyph unicode="&#x3a;" d="M 160,448l0-36.948 l-83.808-11.778 5.444-38.74-81.636-23.409 105.845-369.125 326.033,93.488 17.87,2.512l 62.252,0 l0,384 l-352,0 zM 125.728,3.87l-89.858,313.371 49.843,14.292 43.922-312.522 95.897,13.478-99.804-28.619zM 154.316,51.765l-45.37,322.828 51.054,7.174l0-317.767 l 81.375,0 l-87.059-12.235zM 480,96l-288,0 l0,320 l 288,0 l0-320 zM 256,256l 160,0 l0-32 l-160,0 z" />
<glyph unicode="&#x3b;" d="M 380.628,144.628l-45.256-45.256-79.372,79.373-79.373-79.372-45.255,45.255 79.373,79.372-79.372,79.373 45.254,45.254 79.373-79.372 79.372,79.373 45.256-45.255-79.373-79.373 79.373-79.372zM 256,406c-48.614,0-94.318-18.931-128.693-53.307-34.376-34.375-53.307-80.079-53.307-128.693 0-48.614 18.932-94.318 53.307-128.693 34.375-34.375 80.079-53.307 128.693-53.307 48.614,0 94.318,18.932 128.693,53.307 34.375,34.375 53.307,80.079 53.307,128.693 0,48.614-18.932,94.318-53.307,128.693-34.375,34.376-80.079,53.307-128.693,53.307zM 256,448l0,0 c 123.712,0 224-100.288 224-224s-100.288-224-224-224c-123.711,0-224,100.288-224,224 0,123.712 100.289,224 224,224z" />
<glyph unicode="&#x3c;" d="M 288,432c0,26.51-21.49,48-48,48-26.509,0-48-21.49-48-48 0-48-96-16-96-80l 288,0 c0,64-96,32-96,80zM 240,408.8c-12.813,0-23.2,10.387-23.2,23.2s 10.387,23.2 23.2,23.2c 12.812,0 23.2-10.387 23.2-23.2s-10.388-23.2-23.2-23.2zM 448,384l-32,0 l0-64 l-352,0 l0,64 l-32,0 c-17.673,0-32-14.327-32-32l0-352 c0-17.674 14.326-32 32-32l 416,0 c 17.672,0 32,14.326 32,32l0,352 c0,17.673-14.328,32-32,32zM 416,32l-352,0 l0,32 l 352,0 l0-32 zM 416,128l-352,0 l0,32 l 352,0 l0-32 zM 416,224l-352,0 l0,32 l 352,0 l0-32 z" />
<glyph unicode="&#x3d;" d="M 464,192c 36.5,0 16-96-16-96 16,0 0-80-32-80 0-32-32-48-64-48-135.176,0-87.632,33.825-224,48l0,256 c 120.461,36.134 240,126.712 240,208 26.5,0 96-32 0-192 0,0 80,0 96,0 48,0 32-96 0-96zM 96,272l0-256 l 32,0 l0-16 l-64,0 c-17.6,0-32,21.6-32,48l0,192 c0,26.4 14.4,48 32,48l 64,0 l0-16 l-32,0 z" />
<glyph unicode="&#x3e;" d="M 368,480l-224,0 c-26.4,0-48-21.6-48-48l0-416 c0-26.4 21.6-48 48-48l 224,0 c 26.4,0 48,21.6 48,48l0,416 c0,26.4-21.6,48-48,48zM 192,456l 128,0 l0-16 l-128,0 l0,16 zM 256,0c-17.673,0-32,14.327-32,32s 14.327,32 32,32 32-14.327 32-32-14.327-32-32-32zM 384,96l-256,0 l0,320 l 256,0 l0-320 z" />
<glyph unicode="&#x3f;" d="M 176,400c0,44.183 35.817,80 80,80s 80-35.817 80-80c0-44.183-35.817-80-80-80-44.183,0-80,35.817-80,80zM 504.988,115.99l-128,160c-6.315,7.894-15.606,11.997-24.984,12.004l-0.004,0.006-192.004-0.007c-9.378-0.007-18.669-4.11-24.984-12.002l-128-160c-8.402-10.502-9.34-25.138-2.348-36.627 5.881-9.663 16.314-15.365 27.329-15.365 2.082,0 4.186,0.204 6.282,0.623l 89.725,17.944l0-114.566 l 256,0 l0,114.566 l 89.725-17.945c 2.097-0.419 4.199-0.623 6.281-0.623 11.015,0 21.449,5.703 27.329,15.365 6.993,11.489 6.055,26.125-2.347,36.627zM 352,154.233l-25.725,5.146c-17.325,3.468-34.188-7.772-37.654-25.104-3.466-17.33 7.773-34.188 25.104-37.654l 38.275-7.655l0-24.966 l-96-32-96,32l0,24.966 l 38.276,7.655c 17.33,3.466 28.569,20.324 25.103,37.654-3.466,17.331-20.326,28.564-37.654,25.104l-25.725-5.146l0,69.767 l 96-32 96,32l0-69.767 z" />
<glyph unicode="&#x40;" d="M 448,272c0,106.039-85.961,192-192,192s-192-85.961-192-192c0-62.271 29.654-117.609 75.603-152.689l-75.603-151.311 96,64 32-64 44.823,112.951c 6.308-0.626 12.704-0.951 19.177-0.951s 12.869,0.325 19.178,0.951l 44.822-112.951 32,64 96-64-75.603,151.311c 45.949,35.080 75.603,90.418 75.603,152.689zM 346.51,181.49c-24.176-24.176-56.321-37.49-90.51-37.49-34.19,0-66.334,13.314-90.51,37.49-24.176,24.176-37.49,56.32-37.49,90.51s 13.314,66.333 37.49,90.51c 24.177,24.176 56.32,37.49 90.51,37.49 34.189,0 66.334-13.314 90.51-37.49 24.176-24.176 37.49-56.32 37.49-90.51s-13.314-66.334-37.49-90.51z" />
<glyph unicode="&#x41;" d="M 512,281.475l-176.89,25.704-79.11,160.291-79.108-160.291-176.892-25.704 128-124.769-30.216-176.176 158.216,83.179 158.216-83.179-30.217,176.176 128.001,124.769z" />
<glyph unicode="&#x42;" d="M 287.998,320l 63.999-63.999-127.997-127.997-63.999,63.999zM 500.763,331.248l-36.758,36.758-16.004-16.004c-8.189-8.19-19.505-13.255-32-13.255-24.994,0-45.257,20.261-45.257,45.255 0,12.501 5.070,23.819 13.267,32.009l 15.994,15.993-36.759,36.758c-14.984,14.984-39.504,14.984-54.488,0l-297.52-297.519c-14.983-14.984-14.983-39.505 0-54.488l 36.76-36.759 15.981,15.982c 8.191,8.203 19.515,13.276 32.022,13.276 24.994,0 45.255-20.262 45.255-45.255 0-12.503-5.070-23.82-13.267-32.011l-15.992-15.993 36.758-36.759c 14.983-14.983 39.504-14.983 54.488,0l 297.52,297.52c 14.982,14.988 14.982,39.508 0,54.492zM 224.001,64.002l-128,128 192,192 128-128-192-192z" />
<glyph unicode="&#x44;" d="M 256,384c-111.659,0-208.441-65.021-256-160 47.559-94.979 144.341-160 256-160 111.657,0 208.439,65.021 256,160-47.558,94.979-144.343,160-256,160zM 382.225,299.148c 30.081-19.187 55.571-44.887 74.717-75.148-19.146-30.261-44.637-55.961-74.718-75.149-37.797-24.108-81.445-36.851-126.224-36.851-44.78,0-88.428,12.743-126.225,36.852-30.080,19.186-55.57,44.886-74.717,75.148 19.146,30.262 44.637,55.962 74.717,75.148 1.959,1.25 3.938,2.461 5.929,3.65-4.979-13.664-7.704-28.411-7.704-43.798 0-70.692 57.308-128 128-128s 128,57.308 128,128c0,15.387-2.725,30.134-7.704,43.799 1.99-1.189 3.969-2.401 5.929-3.651zM 256,275c0-26.51-21.49-48-48-48s-48,21.49-48,48 21.49,48 48,48 48-21.49 48-48z" />
<glyph unicode="&#x45;" d="M 96,480l0-512 l 160,160 160-160l0,512 z" />
<glyph unicode="&#x46;" d="M0,320l 32,0 l0-192 l-32,0 zM 64,320l 32,0 l0-192 l-32,0 zM 128,320l 32,0 l0-192 l-32,0 zM 512,224l-224,224l0-128 l-96,0 l0-192 l 96,0 l0-128 z" />
<glyph unicode="&#x47;" d="M 288,158.078l0,14.768 c 19.129,16.6 32,47.621 32,83.154 0,53.020-28.653,96-64,96-35.346,0-64-42.98-64-96 0-35.535 12.872-66.558 32.003-83.156l0-14.766 c-73.031-8.895-128-47.634-128-94.078l 319.997,0 c0,46.444-54.969,85.184-128,94.078zM 160.84,175.194c-13.354,8.158-30.188,13.814-48.839,15.902l0,7.341 c 9.562,8.301 16,23.799 16,41.563 0,26.51-14.327,48-32,48s-32-21.49-32-48c0-17.764 6.438-33.262 16-41.563l0-7.327 c-45.402-5.079-80-31.397-80-63.109l 89.713,0 c 17.021,19.613 41.61,35.942 71.126,47.193zM 432,191.11l0,7.327 c 9.563,8.301 16,23.799 16,41.563 0,26.51-14.327,48-32,48s-32-21.49-32-48c0-17.764 6.438-33.262 16-41.563l0-7.341 c-18.65-2.088-35.485-7.744-48.84-15.902 29.516-11.251 54.104-27.58 71.127-47.193l 89.713,0 c0,31.712-34.597,58.030-80,63.109z" />
<glyph unicode="&#x48;" d="M 336.788,149.699c-23.375-17.894-50.901-28.32-80.784-28.32-29.892,0-57.418,10.427-80.797,28.32-101.748-20.882-175.207-79.948-175.207-149.699l 512,0 c0,69.751-73.46,128.817-175.212,149.699zM 150.753,304c0,79.529 47.12,144 105.247,144s 105.247-64.471 105.247-144c0-79.529-47.12-144-105.247-144-58.127,0-105.247,64.471-105.247,144z" />
<glyph unicode="&#x49;" d="M 512,265.372c0,100.463-29.396,181.969-65.741,182.613 0.146,0.003 0.289,0.015 0.436,0.015l-41.471,0 c0,0-97.4-73.168-237.615-101.877-4.28-22.646-7.015-49.637-7.015-80.751 0-31.114 2.733-58.104 7.015-80.75 140.214-28.709 237.615-101.878 237.615-101.878l 41.471,0 c-0.146,0-0.289,0.012-0.436,0.016 36.348,0.644 65.741,82.149 65.741,182.612zM 432.412,110.374c-4.691,0-9.766,4.871-12.373,7.774-6.315,7.032-12.396,17.98-17.594,31.664-11.628,30.616-18.033,71.655-18.033,115.562 0,43.905 6.405,84.945 18.033,115.561 5.197,13.684 11.281,24.633 17.594,31.664 2.607,2.906 7.682,7.776 12.373,7.776 4.69,0 9.768-4.872 12.372-7.776 6.317-7.032 12.398-17.979 17.594-31.664 11.629-30.615 18.034-71.656 18.034-115.561 0-43.902-6.405-84.944-18.034-115.562-5.195-13.684-11.281-24.632-17.594-31.664-2.604-2.903-7.68-7.774-12.372-7.774zM 125.906,265.372c0,25.975 1.905,51.215 5.526,74.547-23.686-3.277-44.471-5.162-70.17-5.162-33.529,0-33.529,0-33.529,0l-27.733-47.343l0-44.085 l 27.73-47.343c0,0 0,0 33.53,0 25.699,0 46.484-1.887 70.17-5.162-3.618,23.332-5.524,48.573-5.524,74.548zM 184.075,158.914l-63.999,12.255 40.921-160.772c 2.118-8.317 10.372-12.519 18.343-9.327l 59.278,23.726c 7.972,3.188 11.164,11.982 7.098,19.542l-61.641,114.576zM 432.412,205.635c-1.809,0-3.764,1.877-4.769,2.996-2.435,2.71-4.778,6.93-6.781,12.204-4.481,11.8-6.95,27.617-6.95,44.539 0,16.922 2.469,32.739 6.95,44.539 2.003,5.274 4.348,9.494 6.781,12.204 1.005,1.12 2.96,2.997 4.769,2.997 1.808,0 3.765-1.878 4.769-2.997 2.435-2.71 4.778-6.929 6.78-12.204 4.482-11.799 6.951-27.617 6.951-44.539 0-16.921-2.469-32.739-6.951-44.539-2.002-5.274-4.348-9.494-6.78-12.204-1.004-1.119-2.96-2.996-4.769-2.996z" />
<glyph unicode="&#x4a;" d="M0,416l 192-192l0-192 l 128,32l0,160 l 192,192z" />
<glyph unicode="&#x4b;" d="M 320-32l 96,96-160,160 160,160-96,96-256-256z" />
<glyph unicode="&#x4c;" d="M 192,480l-96-96 160-160-160-160 96-96 256,256z" />
<glyph unicode="&#x61;" d="M 421.006,185.26c-6.824,6.723-21.957,10.283-44.986,10.586-15.589,0.172-34.351-1.201-54.085-3.964-8.837,5.099-17.946,10.647-25.094,17.329-19.231,17.958-35.284,42.886-45.288,70.297 0.652,2.56 1.207,4.81 1.724,7.106 0,0 10.833,61.53 7.965,82.333-0.395,2.853-0.637,3.681-1.404,5.898l-0.941,2.417c-2.948,6.796-8.724,13.997-17.783,13.604l-5.458,0.172c-10.1,0-18.332-5.166-20.493-12.887-6.569-24.217 0.209-60.446 12.491-107.369l-3.144-7.643c-8.794-21.438-19.815-43.030-29.539-62.079l-1.264-2.476c-10.23-20.019-19.512-37.013-27.927-51.411l-8.688-4.594c-0.632-0.334-15.522-8.209-19.014-10.322-29.628-17.691-49.261-37.77-52.518-53.708-1.036-5.085-0.265-11.593 5.007-14.607l 8.403-4.229c 3.645-1.826 7.489-2.751 11.427-2.751 21.102,0 45.6,26.286 79.348,85.183 38.965,12.684 83.327,23.228 122.207,29.045 29.629-16.684 66.071-28.273 89.071-28.273 4.084,0 7.606,0.389 10.466,1.148 4.411,1.168 8.129,3.683 10.396,7.096 4.463,6.716 5.367,15.966 4.156,25.438-0.361,2.812-2.606,6.288-5.035,8.661zM 105.823,72.976c 3.848,10.521 19.080,31.322 41.602,49.778 1.416,1.148 4.904,4.416 8.097,7.451-23.551-37.562-39.323-52.533-49.699-57.229zM 239.217,380.157c 6.783,0 10.642-17.097 10.962-33.127 0.32-16.030-3.429-27.28-8.079-35.604-3.851,12.324-5.713,31.75-5.713,44.452 0,0-0.283,24.279 2.83,24.279zM 199.426,161.253c 4.725,8.458 9.641,17.378 14.665,26.839 12.246,23.158 19.979,41.278 25.739,56.173 11.455-20.842 25.722-38.56 42.493-52.756 2.092-1.771 4.309-3.551 6.637-5.325-34.105-6.748-63.582-14.955-89.534-24.931zM 414.452,163.174c-2.077-1.299-8.027-2.050-11.854-2.050-12.353,0-27.636,5.647-49.063,14.833 8.234,0.609 15.781,0.919 22.55,0.919 12.391,0 16.060,0.054 28.175-3.036s 12.269-9.367 10.192-10.666zM 451.716,380.285l-71.432,71.431c-15.556,15.556-46.284,28.284-68.284,28.284l-240,0 c-22,0-40-18-40-40l0-432 c0-22 18-40 40-40l 368,0 c 22,0 40,18 40,40l0,304 c0,22-12.728,52.729-28.284,68.285zM 429.089,357.657c 1.565-1.565 3.125-3.487 4.64-5.657l-81.729,0 l0,81.728 c 2.17-1.515 4.092-3.075 5.657-4.64l 71.432-71.431zM 448,8c0-4.336-3.664-8-8-8l-368,0 c-4.336,0-8,3.664-8,8l0,432 c0,4.336 3.664,8 8,8l 240,0 c 2.416,0 5.127-0.305 8-0.852l0-127.148 l 127.148,0 c 0.547-2.873 0.852-5.583 0.852-8l0-304 z" />
<glyph unicode="&#x63;" d="M 160,384c0-53.020 42.98-96 96-96s 96,42.98 96,96c0,53.020-42.98,96-96,96-53.020,0-96-42.98-96-96zM 384.039,256l-17.712,0 l-99.552-202.122 37.225,186.122-48,48-48-48 37.225-186.122-99.551,202.122l-17.712,0 c-63.962,0-63.962-42.993-63.962-96l0-160 l 384,0 l0,160 c0,53.007 0,96-63.961,96z" />
<glyph unicode="&#x64;" d="M 416,448l-320,0 l-96-96l0-336 c0-8.837 7.163-16 16-16l 480,0 c 8.836,0 16,7.163 16,16l0,336 l-96,96zM 256,64l-160,128l 96,0 l0,96 l 128,0 l0-96 l 96,0 l-160-128zM 77.255,384l 32,32l 293.489,0 l 32-32l-357.489,0 z" />
<glyph unicode="&#x69;" d="M 256,480c-141.385,0-256-114.615-256-256s 114.614-256 256-256c 141.385,0 256,114.615 256,256s-114.615,256-256,256zM 256,416c 35.347,0 64-28.654 64-64s-28.653-64-64-64-64,28.654-64,64 28.654,64 64,64zM 352,32l-192,0 l0,32 l 32,0 l0,160 l-32,0 l0,32 l 160,0 l0-192 l 32,0 l0-32 z" />
<glyph unicode="&#x6d;" d="M0,384l0-320 l 512,0 l0,320 l-512,0 zM 442.667,352l-186.667-140-186.667,140l 373.334,0 zM 32,96l0,244 l 224-168 224,168l0-244 l-448,0 z" />
<glyph unicode="&#x70;" d="M 457.153,376.352c-63.35,36.014-153.93,39.648-201.082,39.648-0.027-0.024-0.048-0.056-0.066-0.078-0.029,0.023-0.049,0.053-0.077,0.078-47.151,0-137.73-3.638-201.080-39.648-53.267-30.284-54.847-62.709-54.847-85.349l0-3.397 c0-5.182 4.469-9.418 9.926-9.418l 120.146,0 c 5.457,0 9.926,4.236 9.926,9.418l0,11.453 c0,28.607 27.356,33.178 42.449,35.605s 52.618,4.777 73.48,4.777c 0.028,0 0.048,0 0.077,0 0.020,0 0.040,0 0.066,0 20.863,0 58.384-2.351 73.48-4.777 15.094-2.43 42.449-7 42.449-35.605l0-11.453 c0-5.182 4.469-9.418 9.928-9.418l 120.145,0 c 5.459,0 9.928,4.236 9.928,9.418l0,3.397 c-0.001,22.64-1.581,55.065-54.848,85.349zM 256.006,281.792c-28.374,0-87.448,4.082-117.461-32.311-30.022-36.384-105.090-217.481-38.147-217.481 66.956,0 125.458,0 155.606,0 30.136,0 88.648,0 155.595,0 66.945,0-8.125,181.097-38.137,217.481-30.018,36.393-89.095,32.311-117.456,32.311zM 256,80c-44.183,0-80,35.817-80,80s 35.817,80 80,80 80-35.817 80-80-35.817-80-80-80z" />
<glyph unicode="&#x74;" d="M 256,384c-106.038,0-192-85.961-192-192s 85.961-192 192-192c 106.037,0 192,85.961 192,192s-85.963,192-192,192zM 357.822,90.177c-27.196-27.198-63.358-42.177-101.822-42.177s-74.625,14.979-101.823,42.177c-27.198,27.197-42.177,63.359-42.177,101.823s 14.979,74.625 42.177,101.823c 27.198,27.198 63.359,42.177 101.823,42.177s 74.626-14.979 101.821-42.177c 27.201-27.198 42.179-63.359 42.179-101.823s-14.979-74.626-42.178-101.823zM 162.965,378.069l-21.47,42.939c-49.437-24.768-89.735-65.066-114.503-114.504l 42.938-21.47c 20.124,40.168 52.866,72.911 93.035,93.035zM 442.067,285.035l 42.939,21.469c-24.766,49.438-65.063,89.736-114.502,114.504l-21.472-42.939c 40.169-20.124 72.912-52.866 93.035-93.034zM 256,288l-32,0 l0-96 c0-5.055 2.35-9.555 6.011-12.486l-0.006-0.008 80-64 19.988,24.988-73.993,59.195l0,88.311 z" />
<glyph unicode="&#x77;" d="M 41.701,114.139l 186.393,152.113c 6.183,5.045 12.183,9.551 17.906,13.495-7.341,17.282-11.404,36.293-11.404,56.253 0,79.529 64.471,144 144,144 14.547,0 28.586-2.166 41.823-6.177l-89.823-89.823l0-96 l 96,0 l 89.823,89.823c 4.011-13.237 6.177-27.276 6.177-41.823 0-79.529-64.471-144-144-144-19.96,0-38.97,4.063-56.252,11.404-3.944-5.724-8.449-11.724-13.494-17.906l-152.114-186.394c-31.645-38.776-86.336-41.702-121.536-6.502s-32.275,89.892 6.501,121.537zM 90.596,0l 48,48-48,48-48-48 48-48z" />
<glyph unicode="&#xe000;" d="M0,416l0-64 l 32,0 l0,32 l 32,0 l0-96 l-32,0 l0-32 l 96,0 l0,32 l-32,0 l0,96 l 32,0 l0-32 l 32,0 l0,64 l-160,0 zM 224,384l0-64 l 224,0 l0-224 l-384,0 l0,96 l-64,0 l0-160 l 512,0 l0,352 l-288,0 z" />
<glyph unicode="&#xe001;" d="M 192,384c0,35.346 28.654,64 64,64s 64-28.654 64-64c0-35.346-28.654-64-64-64-35.346,0-64,28.654-64,64zM 192,224c0,35.346 28.654,64 64,64s 64-28.654 64-64c0-35.346-28.654-64-64-64-35.346,0-64,28.654-64,64zM 192,64c0,35.346 28.654,64 64,64s 64-28.654 64-64c0-35.346-28.654-64-64-64-35.346,0-64,28.654-64,64z" />
<glyph unicode="&#xe002;" d="M 369.12,433.12c-62.496,62.496-163.744,62.496-226.256,0-62.496-62.464-62.496-163.808 0-226.24 0.016,0 113.136-110.88 113.136-238.88 0,128 113.12,238.88 113.12,238.88 62.512,62.432 62.512,163.776 0,226.24zM 256,256c-35.376,0-64,28.624-64,64s 28.624,64 64,64 64-28.624 64-64-28.624-64-64-64z" />
<glyph unicode="&#xe003;" d="M 160,288l 64,0 l0-64 l-64,0 zM 256,288l 64,0 l0-64 l-64,0 zM 352,288l 64,0 l0-64 l-64,0 zM 64,96l 64,0 l0-64 l-64,0 zM 160,96l 64,0 l0-64 l-64,0 zM 256,96l 64,0 l0-64 l-64,0 zM 160,192l 64,0 l0-64 l-64,0 zM 256,192l 64,0 l0-64 l-64,0 zM 352,192l 64,0 l0-64 l-64,0 zM 64,192l 64,0 l0-64 l-64,0 zM 416,480l0-32 l-64,0 l0,32 l-224,0 l0-32 l-64,0 l0,32 l-64,0 l0-512 l 480,0 l0,512 l-64,0 zM 448,0l-416,0 l0,352 l 416,0 l0-352 z" />
<glyph unicode="&#xe004;" d="M 329.372,105.372l-105.372,105.373l0,141.255 l 64,0 l0-114.745 l 86.628-86.627zM 256,480c-141.385,0-256-114.615-256-256s 114.615-256 256-256 256,114.615 256,256-114.615,256-256,256zM 256,32c-106.039,0-192,85.961-192,192s 85.961,192 192,192c 106.039,0 192-85.961 192-192 0-106.039-85.961-192-192-192z" />
<glyph unicode="&#xe005;" d="M 512,224c0,141.385-114.615,256-256,256s-256-114.615-256-256c0-110.027 69.418-203.832 166.843-240.034l-6.843-15.966l 192,0 l-6.843,15.966c 97.425,36.202 166.843,130.007 166.843,240.034zM 243.395,162.587c-11.404,4.894-19.395,16.218-19.395,29.413 0,17.673 14.327,32 32,32 17.673,0 32-14.327 32-32 0-13.195-7.989-24.522-19.393-29.417l-12.607,29.417-12.605-29.413zM 269.134,161.354c 29.046,6.059 50.866,31.801 50.866,62.646 0,35.347-28.653,64-64,64-35.346,0-64-28.653-64-64 0-30.846 21.831-56.561 50.88-62.614l-37.312-87.061c-45.615,19.575-77.568,64.892-77.568,117.675 0,70.692 57.308,134 128,134s 128-63.308 128-134c0-52.783-31.953-98.1-77.568-117.675l-37.298,87.029zM 344.224-13.854l-36.962,86.243c 63.223,21.369 108.738,81.173 108.738,151.611 0,88.365-71.634,160-160,160-88.365,0-160-71.635-160-160 0-70.438 45.515-130.242 108.738-151.611l-36.962-86.243c-79.797,34.244-135.693,113.517-135.693,205.854 0,123.666 100.251,229.917 223.917,229.917 123.666,0 223.917-106.251 223.917-229.917 0-92.337-55.896-171.61-135.693-205.854z" />
<glyph unicode="&#xe006;" d="M 240,128c 44.183,0 80,35.817 80,80l0,192 c0,44.183-35.817,80-80,80s-80-35.817-80-80l0-192 c0-44.183 35.818-80 80-80zM 352,256l0-48 c0-61.855-50.145-112-112-112-61.856,0-112,50.145-112,112l0,48 l-32,0 l0-48 c0-74.119 56.002-135.15 128-143.11l0-64.89 l-64,0 l0-32 l 160,0 l0,32 l-64,0 l0,64.89 c 71.997,7.96 128,68.991 128,143.11l0,48 l-32,0 z" />
<glyph unicode="&#xe007;" d="M 489.42,351.874c-5.294,0-10.729-1.861-15.718-5.383l-89.702-63.307l0,52.816 c0,26.4-21.6,48-48,48l-288,0 c-26.4,0-48-21.6-48-48l0-224 c0-26.4 21.6-48 48-48l 288,0 c 26.4,0 48,21.6 48,48l0,52.815 l 89.701-63.307c 4.989-3.521 10.424-5.382 15.717-5.383 0.001,0 0.001,0 0.003,0 7.044,0 13.477,3.248 17.646,8.911 3.228,4.385 4.934,10.027 4.934,16.318l0,205.291 c-0.001,16.563-11.36,25.229-22.581,25.229z" />
<glyph unicode="&#xe008;" d="M 296,256l-8,0 l0,96 c0,52.935-43.065,96-96,96l-64,0 c-52.935,0-96-43.065-96-96l0-96 l-8,0 c-13.2,0-24-10.8-24-24l0-240 c0-13.2 10.8-24 24-24l 272,0 c 13.2,0 24,10.8 24,24l0,240 c0,13.2-10.8,24-24,24zM 192,32l-64,0 l 13.92,69.6c-8.404,5.766-13.92,15.437-13.92,26.4 0,17.673 14.327,32 32,32 17.673,0 32-14.327 32-32 0-10.963-5.516-20.634-13.92-26.4l 13.92-69.6zM 224,256l-128,0 l0,96 c0,17.645 14.355,32 32,32l 64,0 c 17.645,0 32-14.355 32-32l0-96 z" />
<glyph unicode="&#xe009;" d="M 384,448l-64,0 c-52.935,0-96-43.065-96-96l0-96 l-200,0 c-13.2,0-24-10.8-24-24l0-240 c0-13.2 10.8-24 24-24l 272,0 c 13.2,0 24,10.8 24,24l0,240 c0,13.2-10.8,24-24,24l-8,0 l0,96 c0,17.645 14.355,32 32,32l 64,0 c 17.645,0 32-14.355 32-32l0-96 l 64,0 l0,96 c0,52.935-43.065,96-96,96zM 192,32l-64,0 l 13.92,69.6c-8.404,5.766-13.92,15.437-13.92,26.4 0,17.673 14.327,32 32,32 17.673,0 32-14.327 32-32 0-10.963-5.516-20.634-13.92-26.4l 13.92-69.6z" />
<glyph unicode="&#xe00a;" d="M0,224c0-141.385 114.615-256 256-256 141.386,0 256,114.615 256,256s-114.614,256-256,256c-141.385,0-256-114.615-256-256zM 448,224c0-36.618-10.256-70.84-28.044-99.956l-263.911,263.912c 29.115,17.789 63.337,28.044 99.955,28.044 106.038,0 192-85.961 192-192zM 64,224c0,36.618 10.256,70.839 28.045,99.956l 263.911-263.912c-29.117-17.789-63.338-28.044-99.956-28.044-106.038,0-192,85.961-192,192z" />
<glyph unicode="&#xe00b;" d="M 512,288l-96,96-160-160-160,160-96-96 256-255.999z" />
<glyph unicode="&#xe08d;" d="M 451.716,380.285l-71.432,71.431c-15.556,15.556-46.284,28.284-68.284,28.284l-240,0 c-22,0-40-18-40-40l0-432 c0-22 18-40 40-40l 368,0 c 22,0 40,18 40,40l0,304 c0,22-12.728,52.729-28.284,68.285zM 429.089,357.657c 1.565-1.565 3.125-3.487 4.64-5.657l-81.729,0 l0,81.728 c 2.17-1.515 4.092-3.075 5.657-4.64l 71.432-71.431zM 448,8c0-4.336-3.664-8-8-8l-368,0 c-4.336,0-8,3.664-8,8l0,432 c0,4.336 3.664,8 8,8l 240,0 c 2.416,0 5.127-0.305 8-0.852l0-127.148 l 127.148,0 c 0.547-2.873 0.852-5.583 0.852-8l0-304 z" />
<glyph unicode="&#xe0b9;" d="M 447.875,415.874l-128.25,0 c-2.848,0-10.369-1.361-19.418-5.109-9.047-3.748-15.326-8.103-17.34-10.116l-212.16-212.16 149.783-149.782 212.159,212.159c 2.013,2.014 6.369,8.293 10.117,17.342 3.75,9.049 5.109,16.569 5.109,19.416l0,128.251 zM 463.906,480l0,0 c 26.451,0 48.094-21.643 48.094-48.094l0-144.282 c0-26.451-15.303-63.396-34.007-82.102l-223.495-223.494c-9.352-9.352-21.681-14.028-34.008-14.028s-24.655,4.675-34.007,14.028l-172.455,172.453c-18.704,18.704-18.704,49.312 0,68.016l 223.495,223.495c 18.704,18.704 55.649,34.008 82.102,34.008l 144.281,0 zM 320,336c0,26.509 21.491,48 48,48s 48-21.491 48-48c0-26.509-21.491-48-48-48-26.509,0-48,21.491-48,48z" />
<glyph unicode="&#xe299;" d="M0,480l 128,0 l0-128 l-128,0 zM 192,448l 320,0 l0-64 l-320,0 zM0,288l 128,0 l0-128 l-128,0 zM 192,256l 320,0 l0-64 l-320,0 zM0,96l 128,0 l0-128 l-128,0 zM 192,64l 320,0 l0-64 l-320,0 z" />
<glyph unicode="&#xe372;" d="M 491.529,448c-167.25-126.583-327.651-295.9-327.651-295.9l-115.59,103.9-48.288-49.189c 47.508-44.651 157.581-162.599 194.816-206.811 104.795,175.090 213.739,305.668 317.184,425.077l-20.471,22.923z" />
<glyph unicode="&#xe432;" d="M 206.297,209.639l-101.497,90.439-42.41-42.398c 41.72-39.207 138.38-140.625 171.080-179.447 92.020,153.749 187.687,266.261 278.53,371.118l-17.973,17.974c-146.871-111.159-287.73-257.686-287.73-257.686zM 384,0l-352,0 l0,352 l 251.776,0 c 11.14,10.316 22.868,21.030 35.086,32l-318.862,0 l0-416 l 416,0 l0,291 c-10.746-13.778-21.408-27.758-32-42.013l0-216.987 z" />
<glyph unicode="&#xe433;" d="M 384,352l0-352 l-352,0 l0,352 l 352,0 M 416,384l-416,0 l0-416 l 416,0 l0,416 z" />
<glyph unicode="&#xe48b;" d="M 128,448l 32,32l 192,0 l 32-32-32-32l-192,0 zM 384,240l-32,32l0,128 l 32,32 32-32l0-128 zM 128,239.999l-32,32l0,128.001 l 32,32 32-32l0-128.001 zM 384,16l-32,32l0,128 l 32,32 32-32l0-128 zM 128,224l 32,32l 192,0 l 32-32-32-32l-192,0 zM 128,0l 32,32l 192,0 l 32-32-32-32l-192,0 z" />
<glyph unicode="&#xe600;" d="M 437.020,405.019c 48.351-48.352 74.98-112.64 74.98-181.020s-26.629-132.667-74.98-181.019c-48.353-48.351-112.64-74.98-181.020-74.98-68.38,0-132.667,26.629-181.020,74.98-48.351,48.352-74.98,112.639-74.98,181.019 0,68.38 26.627,132.668 74.98,181.020 48.353,48.352 112.64,74.981 181.020,74.981 68.38,0 132.667-26.629 181.020-74.981zM 414.392,65.607c 31.529,31.53 52.493,70.804 61.136,113.531-6.737-9.918-13.181-13.597-17.172,8.603-4.11,36.195-37.354,13.074-58.258,25.93-22.002-14.829-71.453,28.831-63.049-20.412 12.967-22.211 70.004,29.725 41.574-17.271-18.137-32.808-66.321-105.466-60.053-143.129 0.791-54.872-56.067-11.442-75.657,6.76-13.178,36.46-4.491,100.187-38.949,118.043-37.401,1.624-69.502,5.023-83.997,46.835-8.723,29.914 9.282,74.447 41.339,81.322 46.925,29.483 63.687-34.527 107.695-35.717 13.664,14.297 50.908,18.843 53.996,34.875-28.875,5.095 36.634,24.279-2.764,35.191-21.735-2.556-35.739-22.537-24.184-39.479-42.119-9.821-43.468,60.952-83.955,38.629-1.029-35.295-66.111-11.443-22.518-4.286 14.978,6.544-24.43,25.508-3.14,22.062 10.458,0.568 45.666,12.906 36.138,21.201 19.605,12.17 36.080-29.145 55.269,0.941 13.854,23.133-5.81,27.404-23.175,15.678-9.79,10.962 17.285,34.638 41.166,44.869 7.959,3.41 15.561,5.268 21.373,4.742 12.029-13.896 34.275-16.303 35.439,1.671-29.791,14.267-62.638,21.804-96.646,21.804-48.811,0-95.235-15.512-133.654-44.195 10.325-4.73 16.186-10.619 6.239-18.148-7.728-23.027-39.085-53.938-66.612-49.562-14.293-24.648-23.706-51.803-27.73-80.264 23.056-7.628 28.372-22.725 23.418-27.775-11.748-10.244-18.968-24.765-22.688-40.661 7.505-45.918 29.086-88.238 62.635-121.788 42.308-42.307 98.559-65.607 158.392-65.607 59.832,0 116.084,23.3 158.392,65.607z" />
<glyph unicode="&#xe601;" d="M 448,32l-384,0 q-26.5,0-45.25,18.75t-18.75,45.25l0,256 q0,26.5 18.75,45.25t 45.25,18.75l 384,0 q 26.5,0 45.25-18.75t 18.75-45.25l0-256 q0-26.5-18.75-45.25t-45.25-18.75zM 448,320q0,13.5-9.5,22.75t-22.5,9.25l-320,0 q-13.5,0-22.75-9.25t-9.25-22.75l0-192 q0-13 9.25-22.5t 22.75-9.5l 320,0 q 13,0 22.5,9.5t 9.5,22.5l0,192 zM 224,128l-96,0 q-13.5,0-22.75,9.5t-9.25,22.5l0,128 q0,13.5 9.25,22.75t 22.75,9.25l 96,0 q 13,0 22.5-9.25t 9.5-22.75l0-128 q0-13-9.5-22.5t-22.5-9.5z" />
<glyph unicode="&#xe602;" d="M 448,32l-384,0 q-26.5,0-45.25,18.75t-18.75,45.25l0,256 q0,26.5 18.75,45.25t 45.25,18.75l 384,0 q 26.5,0 45.25-18.75t 18.75-45.25l0-256 q0-26.5-18.75-45.25t-45.25-18.75zM 448,320q0,13.5-9.5,22.75t-22.5,9.25l-320,0 q-13.5,0-22.75-9.25t-9.25-22.75l0-192 q0-13 9.25-22.5t 22.75-9.5l 320,0 q 13,0 22.5,9.5t 9.5,22.5l0,192 zM 384,128l-96,0 q-13.5,0-22.75,9.5t-9.25,22.5l0,128 q0,13.5 9.25,22.75t 22.75,9.25l 96,0 q 13,0 22.5-9.25t 9.5-22.75l0-128 q0-13-9.5-22.5t-22.5-9.5z" />
<glyph unicode="&#xf0a5;" d="M 448-32l-320,0 q-26.5,0-45.25,18.75t-18.75,45.25l0,256 q-26.5,0-45.25,18.75t-18.75,45.25l0,64 q0,26.5 18.75,45.25t 45.25,18.75l 384,0 q 26.5,0 45.25-18.75t 18.75-45.25l0-384 q0-26.5-18.75-45.25t-45.25-18.75zM 442,432l-148,0 q-4,0-5.5-7.25t 2.5-11.75l 67.5-88.5q 4-4.5 9.5-4.5t 9.5,4.5l 67.5,88.5q 4,4.5 2.5,11.75t-5.5,7.25zM 448,288l-320,0 l0-64 l 320,0 l0,64 zM 448,192l-320,0 l0-64 l 320,0 l0,64 zM 448,96l-320,0 l0-48 q0-6.5 4.75-11.25t 11.25-4.75l 288,0 q 6.5,0 11.25,4.75t 4.75,11.25l0,48 z" />
<glyph unicode="&#xf5d5;" d="M 480,96l-224,0 l0-32 l 48,0 q 6.5,0 11.25-4.75t 4.75-11.25-4.75-11.25-11.25-4.75l-128,0 q-6.5,0-11.25,4.75t-4.75,11.25 4.75,11.25 11.25,4.75l 48,0 l0,32 l-192,0 q-13.5,0-22.75,9.25t-9.25,22.75l0,160 q0,13 9.25,22.5t 22.75,9.5l 192,0 l0,32 l-48,0 q-6.5,0-11.25,4.75t-4.75,11.25 4.75,11.25 11.25,4.75l 128,0 q 6.5,0 11.25-4.75t 4.75-11.25-4.75-11.25-11.25-4.75l-48,0 l0-32 l 224,0 q 13.5,0 22.75-9.5t 9.25-22.5l0-160 q0-13.5-9.5-22.75t-22.5-9.25zM 224,288l-192,0 l0-160 l 192,0 l0,160 zM 480,288l-224,0 l0-160 l 224,0 l0,160 zM 80,256q 6.5,0 11.25-4.75t 4.75-11.25l0-64 q0-6.5-4.75-11.25t-11.25-4.75-11.25,4.75-4.75,11.25l0,64 q0,6.5 4.75,11.25t 11.25,4.75z" />
<glyph unicode="&#xe00c;" d="M 96,416L 416,224L 96,32 z"  />
<glyph unicode="&#xe00d;" d="M 64,416L 448,416L 448,32L 64,32z"  />
<glyph unicode="&#x20;" horiz-adv-x="256" />
</font>
</defs>
</svg>
